<?xml version="1.0" encoding="utf-8" standalone="no"?>
<!DOCTYPE svg PUBLIC "-//W3C//DTD SVG 1.1//EN"
  "http://www.w3.org/Graphics/SVG/1.1/DTD/svg11.dtd">
<svg xmlns:xlink="http://www.w3.org/1999/xlink" width="720pt" height="720pt" viewBox="0 0 720 720" xmlns="http://www.w3.org/2000/svg" version="1.1">
 <metadata>
  <rdf:RDF xmlns:dc="http://purl.org/dc/elements/1.1/" xmlns:cc="http://creativecommons.org/ns#" xmlns:rdf="http://www.w3.org/1999/02/22-rdf-syntax-ns#">
   <cc:Work>
    <dc:type rdf:resource="http://purl.org/dc/dcmitype/StillImage"/>
    <dc:date>2025-04-09T12:53:32.986492</dc:date>
    <dc:format>image/svg+xml</dc:format>
    <dc:creator>
     <cc:Agent>
      <dc:title>Matplotlib v3.10.1, https://matplotlib.org/</dc:title>
     </cc:Agent>
    </dc:creator>
   </cc:Work>
  </rdf:RDF>
 </metadata>
 <defs>
  <style type="text/css">*{stroke-linejoin: round; stroke-linecap: butt}</style>
 </defs>
 <g id="figure_1">
  <g id="patch_1">
   <path d="M 0 720 
L 720 720 
L 720 0 
L 0 0 
z
" style="fill: #ffffff"/>
  </g>
  <g id="axes_1">
   <g id="patch_2">
    <path d="M 90 640.8 
L 648 640.8 
L 648 86.4 
L 90 86.4 
z
" style="fill: #ffffff"/>
   </g>
   <g id="matplotlib.axis_1">
    <g id="xtick_1">
     <g id="line2d_1">
      <path d="M 110.239669 640.8 
L 110.239669 86.4 
" clip-path="url(#pe97efdf635)" style="fill: none; stroke: #b0b0b0; stroke-width: 0.8; stroke-linecap: square"/>
     </g>
     <g id="line2d_2">
      <defs>
       <path id="m2648eb4f1d" d="M 0 0 
L 0 3.5 
" style="stroke: #000000; stroke-width: 0.8"/>
      </defs>
      <g>
       <use xlink:href="#m2648eb4f1d" x="110.239669" y="640.8" style="stroke: #000000; stroke-width: 0.8"/>
      </g>
     </g>
     <g id="text_1">
      <!-- 0 -->
      <g transform="translate(107.058419 655.398438) scale(0.1 -0.1)">
       <defs>
        <path id="DejaVuSans-30" d="M 2034 4250 
Q 1547 4250 1301 3770 
Q 1056 3291 1056 2328 
Q 1056 1369 1301 889 
Q 1547 409 2034 409 
Q 2525 409 2770 889 
Q 3016 1369 3016 2328 
Q 3016 3291 2770 3770 
Q 2525 4250 2034 4250 
z
M 2034 4750 
Q 2819 4750 3233 4129 
Q 3647 3509 3647 2328 
Q 3647 1150 3233 529 
Q 2819 -91 2034 -91 
Q 1250 -91 836 529 
Q 422 1150 422 2328 
Q 422 3509 836 4129 
Q 1250 4750 2034 4750 
z
" transform="scale(0.015625)"/>
       </defs>
       <use xlink:href="#DejaVuSans-30"/>
      </g>
     </g>
    </g>
    <g id="xtick_2">
     <g id="line2d_3">
      <path d="M 212.719008 640.8 
L 212.719008 86.4 
" clip-path="url(#pe97efdf635)" style="fill: none; stroke: #b0b0b0; stroke-width: 0.8; stroke-linecap: square"/>
     </g>
     <g id="line2d_4">
      <g>
       <use xlink:href="#m2648eb4f1d" x="212.719008" y="640.8" style="stroke: #000000; stroke-width: 0.8"/>
      </g>
     </g>
     <g id="text_2">
      <!-- 20 -->
      <g transform="translate(206.356508 655.398438) scale(0.1 -0.1)">
       <defs>
        <path id="DejaVuSans-32" d="M 1228 531 
L 3431 531 
L 3431 0 
L 469 0 
L 469 531 
Q 828 903 1448 1529 
Q 2069 2156 2228 2338 
Q 2531 2678 2651 2914 
Q 2772 3150 2772 3378 
Q 2772 3750 2511 3984 
Q 2250 4219 1831 4219 
Q 1534 4219 1204 4116 
Q 875 4013 500 3803 
L 500 4441 
Q 881 4594 1212 4672 
Q 1544 4750 1819 4750 
Q 2544 4750 2975 4387 
Q 3406 4025 3406 3419 
Q 3406 3131 3298 2873 
Q 3191 2616 2906 2266 
Q 2828 2175 2409 1742 
Q 1991 1309 1228 531 
z
" transform="scale(0.015625)"/>
       </defs>
       <use xlink:href="#DejaVuSans-32"/>
       <use xlink:href="#DejaVuSans-30" transform="translate(63.623047 0)"/>
      </g>
     </g>
    </g>
    <g id="xtick_3">
     <g id="line2d_5">
      <path d="M 315.198347 640.8 
L 315.198347 86.4 
" clip-path="url(#pe97efdf635)" style="fill: none; stroke: #b0b0b0; stroke-width: 0.8; stroke-linecap: square"/>
     </g>
     <g id="line2d_6">
      <g>
       <use xlink:href="#m2648eb4f1d" x="315.198347" y="640.8" style="stroke: #000000; stroke-width: 0.8"/>
      </g>
     </g>
     <g id="text_3">
      <!-- 40 -->
      <g transform="translate(308.835847 655.398438) scale(0.1 -0.1)">
       <defs>
        <path id="DejaVuSans-34" d="M 2419 4116 
L 825 1625 
L 2419 1625 
L 2419 4116 
z
M 2253 4666 
L 3047 4666 
L 3047 1625 
L 3713 1625 
L 3713 1100 
L 3047 1100 
L 3047 0 
L 2419 0 
L 2419 1100 
L 313 1100 
L 313 1709 
L 2253 4666 
z
" transform="scale(0.015625)"/>
       </defs>
       <use xlink:href="#DejaVuSans-34"/>
       <use xlink:href="#DejaVuSans-30" transform="translate(63.623047 0)"/>
      </g>
     </g>
    </g>
    <g id="xtick_4">
     <g id="line2d_7">
      <path d="M 417.677686 640.8 
L 417.677686 86.4 
" clip-path="url(#pe97efdf635)" style="fill: none; stroke: #b0b0b0; stroke-width: 0.8; stroke-linecap: square"/>
     </g>
     <g id="line2d_8">
      <g>
       <use xlink:href="#m2648eb4f1d" x="417.677686" y="640.8" style="stroke: #000000; stroke-width: 0.8"/>
      </g>
     </g>
     <g id="text_4">
      <!-- 60 -->
      <g transform="translate(411.315186 655.398438) scale(0.1 -0.1)">
       <defs>
        <path id="DejaVuSans-36" d="M 2113 2584 
Q 1688 2584 1439 2293 
Q 1191 2003 1191 1497 
Q 1191 994 1439 701 
Q 1688 409 2113 409 
Q 2538 409 2786 701 
Q 3034 994 3034 1497 
Q 3034 2003 2786 2293 
Q 2538 2584 2113 2584 
z
M 3366 4563 
L 3366 3988 
Q 3128 4100 2886 4159 
Q 2644 4219 2406 4219 
Q 1781 4219 1451 3797 
Q 1122 3375 1075 2522 
Q 1259 2794 1537 2939 
Q 1816 3084 2150 3084 
Q 2853 3084 3261 2657 
Q 3669 2231 3669 1497 
Q 3669 778 3244 343 
Q 2819 -91 2113 -91 
Q 1303 -91 875 529 
Q 447 1150 447 2328 
Q 447 3434 972 4092 
Q 1497 4750 2381 4750 
Q 2619 4750 2861 4703 
Q 3103 4656 3366 4563 
z
" transform="scale(0.015625)"/>
       </defs>
       <use xlink:href="#DejaVuSans-36"/>
       <use xlink:href="#DejaVuSans-30" transform="translate(63.623047 0)"/>
      </g>
     </g>
    </g>
    <g id="xtick_5">
     <g id="line2d_9">
      <path d="M 520.157025 640.8 
L 520.157025 86.4 
" clip-path="url(#pe97efdf635)" style="fill: none; stroke: #b0b0b0; stroke-width: 0.8; stroke-linecap: square"/>
     </g>
     <g id="line2d_10">
      <g>
       <use xlink:href="#m2648eb4f1d" x="520.157025" y="640.8" style="stroke: #000000; stroke-width: 0.8"/>
      </g>
     </g>
     <g id="text_5">
      <!-- 80 -->
      <g transform="translate(513.794525 655.398438) scale(0.1 -0.1)">
       <defs>
        <path id="DejaVuSans-38" d="M 2034 2216 
Q 1584 2216 1326 1975 
Q 1069 1734 1069 1313 
Q 1069 891 1326 650 
Q 1584 409 2034 409 
Q 2484 409 2743 651 
Q 3003 894 3003 1313 
Q 3003 1734 2745 1975 
Q 2488 2216 2034 2216 
z
M 1403 2484 
Q 997 2584 770 2862 
Q 544 3141 544 3541 
Q 544 4100 942 4425 
Q 1341 4750 2034 4750 
Q 2731 4750 3128 4425 
Q 3525 4100 3525 3541 
Q 3525 3141 3298 2862 
Q 3072 2584 2669 2484 
Q 3125 2378 3379 2068 
Q 3634 1759 3634 1313 
Q 3634 634 3220 271 
Q 2806 -91 2034 -91 
Q 1263 -91 848 271 
Q 434 634 434 1313 
Q 434 1759 690 2068 
Q 947 2378 1403 2484 
z
M 1172 3481 
Q 1172 3119 1398 2916 
Q 1625 2713 2034 2713 
Q 2441 2713 2670 2916 
Q 2900 3119 2900 3481 
Q 2900 3844 2670 4047 
Q 2441 4250 2034 4250 
Q 1625 4250 1398 4047 
Q 1172 3844 1172 3481 
z
" transform="scale(0.015625)"/>
       </defs>
       <use xlink:href="#DejaVuSans-38"/>
       <use xlink:href="#DejaVuSans-30" transform="translate(63.623047 0)"/>
      </g>
     </g>
    </g>
    <g id="xtick_6">
     <g id="line2d_11">
      <path d="M 622.636364 640.8 
L 622.636364 86.4 
" clip-path="url(#pe97efdf635)" style="fill: none; stroke: #b0b0b0; stroke-width: 0.8; stroke-linecap: square"/>
     </g>
     <g id="line2d_12">
      <g>
       <use xlink:href="#m2648eb4f1d" x="622.636364" y="640.8" style="stroke: #000000; stroke-width: 0.8"/>
      </g>
     </g>
     <g id="text_6">
      <!-- 100 -->
      <g transform="translate(613.092614 655.398438) scale(0.1 -0.1)">
       <defs>
        <path id="DejaVuSans-31" d="M 794 531 
L 1825 531 
L 1825 4091 
L 703 3866 
L 703 4441 
L 1819 4666 
L 2450 4666 
L 2450 531 
L 3481 531 
L 3481 0 
L 794 0 
L 794 531 
z
" transform="scale(0.015625)"/>
       </defs>
       <use xlink:href="#DejaVuSans-31"/>
       <use xlink:href="#DejaVuSans-30" transform="translate(63.623047 0)"/>
       <use xlink:href="#DejaVuSans-30" transform="translate(127.246094 0)"/>
      </g>
     </g>
    </g>
    <g id="text_7">
     <!-- Test number -->
     <g transform="translate(338.051562 669.076563) scale(0.1 -0.1)">
      <defs>
       <path id="DejaVuSans-54" d="M -19 4666 
L 3928 4666 
L 3928 4134 
L 2272 4134 
L 2272 0 
L 1638 0 
L 1638 4134 
L -19 4134 
L -19 4666 
z
" transform="scale(0.015625)"/>
       <path id="DejaVuSans-65" d="M 3597 1894 
L 3597 1613 
L 953 1613 
Q 991 1019 1311 708 
Q 1631 397 2203 397 
Q 2534 397 2845 478 
Q 3156 559 3463 722 
L 3463 178 
Q 3153 47 2828 -22 
Q 2503 -91 2169 -91 
Q 1331 -91 842 396 
Q 353 884 353 1716 
Q 353 2575 817 3079 
Q 1281 3584 2069 3584 
Q 2775 3584 3186 3129 
Q 3597 2675 3597 1894 
z
M 3022 2063 
Q 3016 2534 2758 2815 
Q 2500 3097 2075 3097 
Q 1594 3097 1305 2825 
Q 1016 2553 972 2059 
L 3022 2063 
z
" transform="scale(0.015625)"/>
       <path id="DejaVuSans-73" d="M 2834 3397 
L 2834 2853 
Q 2591 2978 2328 3040 
Q 2066 3103 1784 3103 
Q 1356 3103 1142 2972 
Q 928 2841 928 2578 
Q 928 2378 1081 2264 
Q 1234 2150 1697 2047 
L 1894 2003 
Q 2506 1872 2764 1633 
Q 3022 1394 3022 966 
Q 3022 478 2636 193 
Q 2250 -91 1575 -91 
Q 1294 -91 989 -36 
Q 684 19 347 128 
L 347 722 
Q 666 556 975 473 
Q 1284 391 1588 391 
Q 1994 391 2212 530 
Q 2431 669 2431 922 
Q 2431 1156 2273 1281 
Q 2116 1406 1581 1522 
L 1381 1569 
Q 847 1681 609 1914 
Q 372 2147 372 2553 
Q 372 3047 722 3315 
Q 1072 3584 1716 3584 
Q 2034 3584 2315 3537 
Q 2597 3491 2834 3397 
z
" transform="scale(0.015625)"/>
       <path id="DejaVuSans-74" d="M 1172 4494 
L 1172 3500 
L 2356 3500 
L 2356 3053 
L 1172 3053 
L 1172 1153 
Q 1172 725 1289 603 
Q 1406 481 1766 481 
L 2356 481 
L 2356 0 
L 1766 0 
Q 1100 0 847 248 
Q 594 497 594 1153 
L 594 3053 
L 172 3053 
L 172 3500 
L 594 3500 
L 594 4494 
L 1172 4494 
z
" transform="scale(0.015625)"/>
       <path id="DejaVuSans-20" transform="scale(0.015625)"/>
       <path id="DejaVuSans-6e" d="M 3513 2113 
L 3513 0 
L 2938 0 
L 2938 2094 
Q 2938 2591 2744 2837 
Q 2550 3084 2163 3084 
Q 1697 3084 1428 2787 
Q 1159 2491 1159 1978 
L 1159 0 
L 581 0 
L 581 3500 
L 1159 3500 
L 1159 2956 
Q 1366 3272 1645 3428 
Q 1925 3584 2291 3584 
Q 2894 3584 3203 3211 
Q 3513 2838 3513 2113 
z
" transform="scale(0.015625)"/>
       <path id="DejaVuSans-75" d="M 544 1381 
L 544 3500 
L 1119 3500 
L 1119 1403 
Q 1119 906 1312 657 
Q 1506 409 1894 409 
Q 2359 409 2629 706 
Q 2900 1003 2900 1516 
L 2900 3500 
L 3475 3500 
L 3475 0 
L 2900 0 
L 2900 538 
Q 2691 219 2414 64 
Q 2138 -91 1772 -91 
Q 1169 -91 856 284 
Q 544 659 544 1381 
z
M 1991 3584 
L 1991 3584 
z
" transform="scale(0.015625)"/>
       <path id="DejaVuSans-6d" d="M 3328 2828 
Q 3544 3216 3844 3400 
Q 4144 3584 4550 3584 
Q 5097 3584 5394 3201 
Q 5691 2819 5691 2113 
L 5691 0 
L 5113 0 
L 5113 2094 
Q 5113 2597 4934 2840 
Q 4756 3084 4391 3084 
Q 3944 3084 3684 2787 
Q 3425 2491 3425 1978 
L 3425 0 
L 2847 0 
L 2847 2094 
Q 2847 2600 2669 2842 
Q 2491 3084 2119 3084 
Q 1678 3084 1418 2786 
Q 1159 2488 1159 1978 
L 1159 0 
L 581 0 
L 581 3500 
L 1159 3500 
L 1159 2956 
Q 1356 3278 1631 3431 
Q 1906 3584 2284 3584 
Q 2666 3584 2933 3390 
Q 3200 3197 3328 2828 
z
" transform="scale(0.015625)"/>
       <path id="DejaVuSans-62" d="M 3116 1747 
Q 3116 2381 2855 2742 
Q 2594 3103 2138 3103 
Q 1681 3103 1420 2742 
Q 1159 2381 1159 1747 
Q 1159 1113 1420 752 
Q 1681 391 2138 391 
Q 2594 391 2855 752 
Q 3116 1113 3116 1747 
z
M 1159 2969 
Q 1341 3281 1617 3432 
Q 1894 3584 2278 3584 
Q 2916 3584 3314 3078 
Q 3713 2572 3713 1747 
Q 3713 922 3314 415 
Q 2916 -91 2278 -91 
Q 1894 -91 1617 61 
Q 1341 213 1159 525 
L 1159 0 
L 581 0 
L 581 4863 
L 1159 4863 
L 1159 2969 
z
" transform="scale(0.015625)"/>
       <path id="DejaVuSans-72" d="M 2631 2963 
Q 2534 3019 2420 3045 
Q 2306 3072 2169 3072 
Q 1681 3072 1420 2755 
Q 1159 2438 1159 1844 
L 1159 0 
L 581 0 
L 581 3500 
L 1159 3500 
L 1159 2956 
Q 1341 3275 1631 3429 
Q 1922 3584 2338 3584 
Q 2397 3584 2469 3576 
Q 2541 3569 2628 3553 
L 2631 2963 
z
" transform="scale(0.015625)"/>
      </defs>
      <use xlink:href="#DejaVuSans-54"/>
      <use xlink:href="#DejaVuSans-65" transform="translate(44.083984 0)"/>
      <use xlink:href="#DejaVuSans-73" transform="translate(105.607422 0)"/>
      <use xlink:href="#DejaVuSans-74" transform="translate(157.707031 0)"/>
      <use xlink:href="#DejaVuSans-20" transform="translate(196.916016 0)"/>
      <use xlink:href="#DejaVuSans-6e" transform="translate(228.703125 0)"/>
      <use xlink:href="#DejaVuSans-75" transform="translate(292.082031 0)"/>
      <use xlink:href="#DejaVuSans-6d" transform="translate(355.460938 0)"/>
      <use xlink:href="#DejaVuSans-62" transform="translate(452.873047 0)"/>
      <use xlink:href="#DejaVuSans-65" transform="translate(516.349609 0)"/>
      <use xlink:href="#DejaVuSans-72" transform="translate(577.873047 0)"/>
     </g>
    </g>
   </g>
   <g id="matplotlib.axis_2">
    <g id="ytick_1">
     <g id="line2d_13">
      <path d="M 90 607.396663 
L 648 607.396663 
" clip-path="url(#pe97efdf635)" style="fill: none; stroke: #b0b0b0; stroke-width: 0.8; stroke-linecap: square"/>
     </g>
     <g id="line2d_14">
      <defs>
       <path id="mea1a226c13" d="M 0 0 
L -3.5 0 
" style="stroke: #000000; stroke-width: 0.8"/>
      </defs>
      <g>
       <use xlink:href="#mea1a226c13" x="90" y="607.396663" style="stroke: #000000; stroke-width: 0.8"/>
      </g>
     </g>
     <g id="text_8">
      <!-- 4.70 -->
      <g transform="translate(60.734375 611.195881) scale(0.1 -0.1)">
       <defs>
        <path id="DejaVuSans-2e" d="M 684 794 
L 1344 794 
L 1344 0 
L 684 0 
L 684 794 
z
" transform="scale(0.015625)"/>
        <path id="DejaVuSans-37" d="M 525 4666 
L 3525 4666 
L 3525 4397 
L 1831 0 
L 1172 0 
L 2766 4134 
L 525 4134 
L 525 4666 
z
" transform="scale(0.015625)"/>
       </defs>
       <use xlink:href="#DejaVuSans-34"/>
       <use xlink:href="#DejaVuSans-2e" transform="translate(63.623047 0)"/>
       <use xlink:href="#DejaVuSans-37" transform="translate(95.410156 0)"/>
       <use xlink:href="#DejaVuSans-30" transform="translate(159.033203 0)"/>
      </g>
     </g>
    </g>
    <g id="ytick_2">
     <g id="line2d_15">
      <path d="M 90 545.174748 
L 648 545.174748 
" clip-path="url(#pe97efdf635)" style="fill: none; stroke: #b0b0b0; stroke-width: 0.8; stroke-linecap: square"/>
     </g>
     <g id="line2d_16">
      <g>
       <use xlink:href="#mea1a226c13" x="90" y="545.174748" style="stroke: #000000; stroke-width: 0.8"/>
      </g>
     </g>
     <g id="text_9">
      <!-- 4.75 -->
      <g transform="translate(60.734375 548.973967) scale(0.1 -0.1)">
       <defs>
        <path id="DejaVuSans-35" d="M 691 4666 
L 3169 4666 
L 3169 4134 
L 1269 4134 
L 1269 2991 
Q 1406 3038 1543 3061 
Q 1681 3084 1819 3084 
Q 2600 3084 3056 2656 
Q 3513 2228 3513 1497 
Q 3513 744 3044 326 
Q 2575 -91 1722 -91 
Q 1428 -91 1123 -41 
Q 819 9 494 109 
L 494 744 
Q 775 591 1075 516 
Q 1375 441 1709 441 
Q 2250 441 2565 725 
Q 2881 1009 2881 1497 
Q 2881 1984 2565 2268 
Q 2250 2553 1709 2553 
Q 1456 2553 1204 2497 
Q 953 2441 691 2322 
L 691 4666 
z
" transform="scale(0.015625)"/>
       </defs>
       <use xlink:href="#DejaVuSans-34"/>
       <use xlink:href="#DejaVuSans-2e" transform="translate(63.623047 0)"/>
       <use xlink:href="#DejaVuSans-37" transform="translate(95.410156 0)"/>
       <use xlink:href="#DejaVuSans-35" transform="translate(159.033203 0)"/>
      </g>
     </g>
    </g>
    <g id="ytick_3">
     <g id="line2d_17">
      <path d="M 90 482.952833 
L 648 482.952833 
" clip-path="url(#pe97efdf635)" style="fill: none; stroke: #b0b0b0; stroke-width: 0.8; stroke-linecap: square"/>
     </g>
     <g id="line2d_18">
      <g>
       <use xlink:href="#mea1a226c13" x="90" y="482.952833" style="stroke: #000000; stroke-width: 0.8"/>
      </g>
     </g>
     <g id="text_10">
      <!-- 4.80 -->
      <g transform="translate(60.734375 486.752052) scale(0.1 -0.1)">
       <use xlink:href="#DejaVuSans-34"/>
       <use xlink:href="#DejaVuSans-2e" transform="translate(63.623047 0)"/>
       <use xlink:href="#DejaVuSans-38" transform="translate(95.410156 0)"/>
       <use xlink:href="#DejaVuSans-30" transform="translate(159.033203 0)"/>
      </g>
     </g>
    </g>
    <g id="ytick_4">
     <g id="line2d_19">
      <path d="M 90 420.730918 
L 648 420.730918 
" clip-path="url(#pe97efdf635)" style="fill: none; stroke: #b0b0b0; stroke-width: 0.8; stroke-linecap: square"/>
     </g>
     <g id="line2d_20">
      <g>
       <use xlink:href="#mea1a226c13" x="90" y="420.730918" style="stroke: #000000; stroke-width: 0.8"/>
      </g>
     </g>
     <g id="text_11">
      <!-- 4.85 -->
      <g transform="translate(60.734375 424.530137) scale(0.1 -0.1)">
       <use xlink:href="#DejaVuSans-34"/>
       <use xlink:href="#DejaVuSans-2e" transform="translate(63.623047 0)"/>
       <use xlink:href="#DejaVuSans-38" transform="translate(95.410156 0)"/>
       <use xlink:href="#DejaVuSans-35" transform="translate(159.033203 0)"/>
      </g>
     </g>
    </g>
    <g id="ytick_5">
     <g id="line2d_21">
      <path d="M 90 358.509003 
L 648 358.509003 
" clip-path="url(#pe97efdf635)" style="fill: none; stroke: #b0b0b0; stroke-width: 0.8; stroke-linecap: square"/>
     </g>
     <g id="line2d_22">
      <g>
       <use xlink:href="#mea1a226c13" x="90" y="358.509003" style="stroke: #000000; stroke-width: 0.8"/>
      </g>
     </g>
     <g id="text_12">
      <!-- 4.90 -->
      <g transform="translate(60.734375 362.308222) scale(0.1 -0.1)">
       <defs>
        <path id="DejaVuSans-39" d="M 703 97 
L 703 672 
Q 941 559 1184 500 
Q 1428 441 1663 441 
Q 2288 441 2617 861 
Q 2947 1281 2994 2138 
Q 2813 1869 2534 1725 
Q 2256 1581 1919 1581 
Q 1219 1581 811 2004 
Q 403 2428 403 3163 
Q 403 3881 828 4315 
Q 1253 4750 1959 4750 
Q 2769 4750 3195 4129 
Q 3622 3509 3622 2328 
Q 3622 1225 3098 567 
Q 2575 -91 1691 -91 
Q 1453 -91 1209 -44 
Q 966 3 703 97 
z
M 1959 2075 
Q 2384 2075 2632 2365 
Q 2881 2656 2881 3163 
Q 2881 3666 2632 3958 
Q 2384 4250 1959 4250 
Q 1534 4250 1286 3958 
Q 1038 3666 1038 3163 
Q 1038 2656 1286 2365 
Q 1534 2075 1959 2075 
z
" transform="scale(0.015625)"/>
       </defs>
       <use xlink:href="#DejaVuSans-34"/>
       <use xlink:href="#DejaVuSans-2e" transform="translate(63.623047 0)"/>
       <use xlink:href="#DejaVuSans-39" transform="translate(95.410156 0)"/>
       <use xlink:href="#DejaVuSans-30" transform="translate(159.033203 0)"/>
      </g>
     </g>
    </g>
    <g id="ytick_6">
     <g id="line2d_23">
      <path d="M 90 296.287088 
L 648 296.287088 
" clip-path="url(#pe97efdf635)" style="fill: none; stroke: #b0b0b0; stroke-width: 0.8; stroke-linecap: square"/>
     </g>
     <g id="line2d_24">
      <g>
       <use xlink:href="#mea1a226c13" x="90" y="296.287088" style="stroke: #000000; stroke-width: 0.8"/>
      </g>
     </g>
     <g id="text_13">
      <!-- 4.95 -->
      <g transform="translate(60.734375 300.086307) scale(0.1 -0.1)">
       <use xlink:href="#DejaVuSans-34"/>
       <use xlink:href="#DejaVuSans-2e" transform="translate(63.623047 0)"/>
       <use xlink:href="#DejaVuSans-39" transform="translate(95.410156 0)"/>
       <use xlink:href="#DejaVuSans-35" transform="translate(159.033203 0)"/>
      </g>
     </g>
    </g>
    <g id="ytick_7">
     <g id="line2d_25">
      <path d="M 90 234.065173 
L 648 234.065173 
" clip-path="url(#pe97efdf635)" style="fill: none; stroke: #b0b0b0; stroke-width: 0.8; stroke-linecap: square"/>
     </g>
     <g id="line2d_26">
      <g>
       <use xlink:href="#mea1a226c13" x="90" y="234.065173" style="stroke: #000000; stroke-width: 0.8"/>
      </g>
     </g>
     <g id="text_14">
      <!-- 5.00 -->
      <g transform="translate(60.734375 237.864392) scale(0.1 -0.1)">
       <use xlink:href="#DejaVuSans-35"/>
       <use xlink:href="#DejaVuSans-2e" transform="translate(63.623047 0)"/>
       <use xlink:href="#DejaVuSans-30" transform="translate(95.410156 0)"/>
       <use xlink:href="#DejaVuSans-30" transform="translate(159.033203 0)"/>
      </g>
     </g>
    </g>
    <g id="ytick_8">
     <g id="line2d_27">
      <path d="M 90 171.843258 
L 648 171.843258 
" clip-path="url(#pe97efdf635)" style="fill: none; stroke: #b0b0b0; stroke-width: 0.8; stroke-linecap: square"/>
     </g>
     <g id="line2d_28">
      <g>
       <use xlink:href="#mea1a226c13" x="90" y="171.843258" style="stroke: #000000; stroke-width: 0.8"/>
      </g>
     </g>
     <g id="text_15">
      <!-- 5.05 -->
      <g transform="translate(60.734375 175.642477) scale(0.1 -0.1)">
       <use xlink:href="#DejaVuSans-35"/>
       <use xlink:href="#DejaVuSans-2e" transform="translate(63.623047 0)"/>
       <use xlink:href="#DejaVuSans-30" transform="translate(95.410156 0)"/>
       <use xlink:href="#DejaVuSans-35" transform="translate(159.033203 0)"/>
      </g>
     </g>
    </g>
    <g id="ytick_9">
     <g id="line2d_29">
      <path d="M 90 109.621343 
L 648 109.621343 
" clip-path="url(#pe97efdf635)" style="fill: none; stroke: #b0b0b0; stroke-width: 0.8; stroke-linecap: square"/>
     </g>
     <g id="line2d_30">
      <g>
       <use xlink:href="#mea1a226c13" x="90" y="109.621343" style="stroke: #000000; stroke-width: 0.8"/>
      </g>
     </g>
     <g id="text_16">
      <!-- 5.10 -->
      <g transform="translate(60.734375 113.420562) scale(0.1 -0.1)">
       <use xlink:href="#DejaVuSans-35"/>
       <use xlink:href="#DejaVuSans-2e" transform="translate(63.623047 0)"/>
       <use xlink:href="#DejaVuSans-31" transform="translate(95.410156 0)"/>
       <use xlink:href="#DejaVuSans-30" transform="translate(159.033203 0)"/>
      </g>
     </g>
    </g>
    <g id="text_17">
     <!-- Calculation time in ticks -->
     <g transform="translate(54.654687 423.7125) rotate(-90) scale(0.1 -0.1)">
      <defs>
       <path id="DejaVuSans-43" d="M 4122 4306 
L 4122 3641 
Q 3803 3938 3442 4084 
Q 3081 4231 2675 4231 
Q 1875 4231 1450 3742 
Q 1025 3253 1025 2328 
Q 1025 1406 1450 917 
Q 1875 428 2675 428 
Q 3081 428 3442 575 
Q 3803 722 4122 1019 
L 4122 359 
Q 3791 134 3420 21 
Q 3050 -91 2638 -91 
Q 1578 -91 968 557 
Q 359 1206 359 2328 
Q 359 3453 968 4101 
Q 1578 4750 2638 4750 
Q 3056 4750 3426 4639 
Q 3797 4528 4122 4306 
z
" transform="scale(0.015625)"/>
       <path id="DejaVuSans-61" d="M 2194 1759 
Q 1497 1759 1228 1600 
Q 959 1441 959 1056 
Q 959 750 1161 570 
Q 1363 391 1709 391 
Q 2188 391 2477 730 
Q 2766 1069 2766 1631 
L 2766 1759 
L 2194 1759 
z
M 3341 1997 
L 3341 0 
L 2766 0 
L 2766 531 
Q 2569 213 2275 61 
Q 1981 -91 1556 -91 
Q 1019 -91 701 211 
Q 384 513 384 1019 
Q 384 1609 779 1909 
Q 1175 2209 1959 2209 
L 2766 2209 
L 2766 2266 
Q 2766 2663 2505 2880 
Q 2244 3097 1772 3097 
Q 1472 3097 1187 3025 
Q 903 2953 641 2809 
L 641 3341 
Q 956 3463 1253 3523 
Q 1550 3584 1831 3584 
Q 2591 3584 2966 3190 
Q 3341 2797 3341 1997 
z
" transform="scale(0.015625)"/>
       <path id="DejaVuSans-6c" d="M 603 4863 
L 1178 4863 
L 1178 0 
L 603 0 
L 603 4863 
z
" transform="scale(0.015625)"/>
       <path id="DejaVuSans-63" d="M 3122 3366 
L 3122 2828 
Q 2878 2963 2633 3030 
Q 2388 3097 2138 3097 
Q 1578 3097 1268 2742 
Q 959 2388 959 1747 
Q 959 1106 1268 751 
Q 1578 397 2138 397 
Q 2388 397 2633 464 
Q 2878 531 3122 666 
L 3122 134 
Q 2881 22 2623 -34 
Q 2366 -91 2075 -91 
Q 1284 -91 818 406 
Q 353 903 353 1747 
Q 353 2603 823 3093 
Q 1294 3584 2113 3584 
Q 2378 3584 2631 3529 
Q 2884 3475 3122 3366 
z
" transform="scale(0.015625)"/>
       <path id="DejaVuSans-69" d="M 603 3500 
L 1178 3500 
L 1178 0 
L 603 0 
L 603 3500 
z
M 603 4863 
L 1178 4863 
L 1178 4134 
L 603 4134 
L 603 4863 
z
" transform="scale(0.015625)"/>
       <path id="DejaVuSans-6f" d="M 1959 3097 
Q 1497 3097 1228 2736 
Q 959 2375 959 1747 
Q 959 1119 1226 758 
Q 1494 397 1959 397 
Q 2419 397 2687 759 
Q 2956 1122 2956 1747 
Q 2956 2369 2687 2733 
Q 2419 3097 1959 3097 
z
M 1959 3584 
Q 2709 3584 3137 3096 
Q 3566 2609 3566 1747 
Q 3566 888 3137 398 
Q 2709 -91 1959 -91 
Q 1206 -91 779 398 
Q 353 888 353 1747 
Q 353 2609 779 3096 
Q 1206 3584 1959 3584 
z
" transform="scale(0.015625)"/>
       <path id="DejaVuSans-6b" d="M 581 4863 
L 1159 4863 
L 1159 1991 
L 2875 3500 
L 3609 3500 
L 1753 1863 
L 3688 0 
L 2938 0 
L 1159 1709 
L 1159 0 
L 581 0 
L 581 4863 
z
" transform="scale(0.015625)"/>
      </defs>
      <use xlink:href="#DejaVuSans-43"/>
      <use xlink:href="#DejaVuSans-61" transform="translate(69.824219 0)"/>
      <use xlink:href="#DejaVuSans-6c" transform="translate(131.103516 0)"/>
      <use xlink:href="#DejaVuSans-63" transform="translate(158.886719 0)"/>
      <use xlink:href="#DejaVuSans-75" transform="translate(213.867188 0)"/>
      <use xlink:href="#DejaVuSans-6c" transform="translate(277.246094 0)"/>
      <use xlink:href="#DejaVuSans-61" transform="translate(305.029297 0)"/>
      <use xlink:href="#DejaVuSans-74" transform="translate(366.308594 0)"/>
      <use xlink:href="#DejaVuSans-69" transform="translate(405.517578 0)"/>
      <use xlink:href="#DejaVuSans-6f" transform="translate(433.300781 0)"/>
      <use xlink:href="#DejaVuSans-6e" transform="translate(494.482422 0)"/>
      <use xlink:href="#DejaVuSans-20" transform="translate(557.861328 0)"/>
      <use xlink:href="#DejaVuSans-74" transform="translate(589.648438 0)"/>
      <use xlink:href="#DejaVuSans-69" transform="translate(628.857422 0)"/>
      <use xlink:href="#DejaVuSans-6d" transform="translate(656.640625 0)"/>
      <use xlink:href="#DejaVuSans-65" transform="translate(754.052734 0)"/>
      <use xlink:href="#DejaVuSans-20" transform="translate(815.576172 0)"/>
      <use xlink:href="#DejaVuSans-69" transform="translate(847.363281 0)"/>
      <use xlink:href="#DejaVuSans-6e" transform="translate(875.146484 0)"/>
      <use xlink:href="#DejaVuSans-20" transform="translate(938.525391 0)"/>
      <use xlink:href="#DejaVuSans-74" transform="translate(970.3125 0)"/>
      <use xlink:href="#DejaVuSans-69" transform="translate(1009.521484 0)"/>
      <use xlink:href="#DejaVuSans-63" transform="translate(1037.304688 0)"/>
      <use xlink:href="#DejaVuSans-6b" transform="translate(1092.285156 0)"/>
      <use xlink:href="#DejaVuSans-73" transform="translate(1150.195312 0)"/>
     </g>
    </g>
    <g id="text_18">
     <!-- 1e6 -->
     <g transform="translate(90 83.4) scale(0.1 -0.1)">
      <use xlink:href="#DejaVuSans-31"/>
      <use xlink:href="#DejaVuSans-65" transform="translate(63.623047 0)"/>
      <use xlink:href="#DejaVuSans-36" transform="translate(125.146484 0)"/>
     </g>
    </g>
   </g>
   <g id="line2d_31">
    <path d="M 115.363636 535.654558 
L 120.487603 535.654558 
L 125.61157 535.654558 
L 130.735537 535.654558 
L 135.859504 535.654558 
L 140.983471 535.654558 
L 146.107438 535.654558 
L 151.231405 535.654558 
L 156.355372 450.482949 
L 161.479339 423.951524 
L 166.603306 583.289404 
L 171.727273 601.204338 
L 176.85124 528.763095 
L 181.975207 577.261345 
L 187.099174 587.266629 
L 192.22314 575.153266 
L 197.347107 580.359996 
L 202.471074 582.231631 
L 207.595041 571.974971 
L 212.719008 604.3677 
L 217.842975 583.642824 
L 222.966942 560.869604 
L 228.090909 345.439912 
L 233.214876 564.831895 
L 238.338843 521.1546 
L 243.46281 573.299053 
L 248.586777 594.608815 
L 253.710744 610.10456 
L 258.834711 574.269715 
L 263.958678 588.478712 
L 269.082645 541.874497 
L 274.206612 584.043534 
L 279.330579 479.172229 
L 284.454545 493.518114 
L 289.578512 547.310204 
L 294.702479 604.382633 
L 299.826446 551.205296 
L 304.950413 561.738222 
L 310.07438 559.239389 
L 315.198347 589.439418 
L 320.322314 314.903885 
L 325.446281 390.379068 
L 330.570248 465.996117 
L 335.694215 579.312179 
L 340.818182 578.421161 
L 345.942149 588.391601 
L 351.066116 570.601111 
L 356.190083 587.776849 
L 361.31405 611.871663 
L 366.438017 594.452016 
L 371.561983 584.951974 
L 376.68595 583.182382 
L 381.809917 597.5432 
L 386.933884 575.422065 
L 392.057851 591.724207 
L 397.181818 611.251933 
L 402.305785 571.529462 
L 407.429752 581.691545 
L 412.553719 582.184343 
L 417.677686 582.196787 
L 422.801653 604.673832 
L 427.92562 576.98508 
L 433.049587 600.368075 
L 438.173554 575.504198 
L 443.297521 597.879199 
L 448.421488 482.392836 
L 453.545455 609.696385 
L 458.669421 613.449611 
L 463.793388 607.205019 
L 468.917355 592.224471 
L 474.041322 602.000778 
L 479.165289 585.984857 
L 484.289256 588.655422 
L 489.413223 595.119034 
L 494.53719 581.002126 
L 499.661157 592.450959 
L 504.785124 599.265503 
L 509.909091 602.448776 
L 515.033058 591.861095 
L 520.157025 547.631269 
L 525.280992 601.585136 
L 530.404959 607.737639 
L 535.528926 580.153419 
L 540.652893 601.460692 
L 545.77686 610.156827 
L 550.900826 586.719076 
L 556.024793 580.188264 
L 561.14876 550.391433 
L 566.272727 595.542143 
L 571.396694 595.223567 
L 576.520661 594.113528 
L 581.644628 579.879643 
L 586.768595 607.575862 
L 591.892562 575.815308 
L 597.016529 579.879643 
L 602.140496 582.388431 
L 607.264463 576.693881 
L 612.38843 556.93469 
L 617.512397 590.081548 
L 622.636364 594.337527 
" clip-path="url(#pe97efdf635)" style="fill: none; stroke: #1f77b4; stroke-width: 1.5; stroke-linecap: square"/>
   </g>
   <g id="line2d_32">
    <path d="M 90 535.654558 
L 648 535.654558 
" clip-path="url(#pe97efdf635)" style="fill: none; stroke: #1f77b4; stroke-width: 1.5; stroke-linecap: square"/>
   </g>
   <g id="line2d_33">
    <path d="M 115.363636 339.008655 
L 120.487603 525.34089 
L 125.61157 606.040225 
L 130.735537 456.043099 
L 135.859504 586.3333 
L 140.983471 603.986902 
L 146.107438 609.099054 
L 151.231405 605.788848 
L 156.355372 612.82988 
L 161.479339 597.204713 
L 166.603306 615.186846 
L 171.727273 599.295369 
L 176.85124 609.342964 
L 181.975207 590.741101 
L 187.099174 570.058536 
L 192.22314 596.916003 
L 197.347107 601.119716 
L 202.471074 605.905826 
L 207.595041 610.574958 
L 212.719008 547.897579 
L 217.842975 538.564292 
L 222.966942 573.418519 
L 228.090909 595.778587 
L 233.214876 590.848122 
L 238.338843 589.461818 
L 243.46281 587.303962 
L 248.586777 598.705506 
L 253.710744 588.767421 
L 258.834711 605.736582 
L 263.958678 609.390253 
L 269.082645 601.007717 
L 274.206612 610.998067 
L 279.330579 602.675264 
L 284.454545 611.122511 
L 289.578512 607.147775 
L 294.702479 585.233217 
L 299.826446 580.780616 
L 304.950413 607.409107 
L 310.07438 588.476223 
L 315.198347 615.074847 
L 320.322314 554.303947 
L 325.446281 591.955672 
L 330.570248 607.613195 
L 335.694215 611.358954 
L 340.818182 611.344021 
L 345.942149 607.553462 
L 351.066116 601.839001 
L 356.190083 572.435413 
L 361.31405 533.464583 
L 366.438017 540.674859 
L 371.561983 607.86706 
L 376.68595 609.216032 
L 381.809917 610.562514 
L 386.933884 582.221676 
L 392.057851 565.050916 
L 397.181818 606.020314 
L 402.305785 577.261345 
L 407.429752 570.553822 
L 412.553719 571.66635 
L 417.677686 597.936443 
L 422.801653 612.89708 
L 427.92562 595.489877 
L 433.049587 533.325206 
L 438.173554 510.034299 
L 443.297521 544.972962 
L 448.421488 544.972962 
L 453.545455 544.972962 
L 458.669421 544.972962 
L 463.793388 544.972962 
L 468.917355 544.972962 
L 474.041322 544.972962 
L 479.165289 487.915653 
L 484.289256 544.746661 
L 489.413223 586.057035 
L 494.53719 570.703155 
L 499.661157 600.141587 
L 504.785124 595.228545 
L 509.909091 600.574652 
L 515.033058 604.536944 
L 520.157025 612.274861 
L 525.280992 600.151543 
L 530.404959 601.321315 
L 535.528926 604.225834 
L 540.652893 604.49961 
L 545.77686 596.48045 
L 550.900826 607.745105 
L 556.024793 612.429171 
L 561.14876 603.830103 
L 566.272727 602.842019 
L 571.396694 582.65474 
L 576.520661 601.117227 
L 581.644628 608.471857 
L 586.768595 595.54961 
L 591.892562 598.914571 
L 597.016529 615.137069 
L 602.140496 588.085469 
L 607.264463 602.369132 
L 612.38843 603.342283 
L 617.512397 596.736804 
L 622.636364 596.23654 
" clip-path="url(#pe97efdf635)" style="fill: none; stroke: #ff7f0e; stroke-width: 1.5; stroke-linecap: square"/>
   </g>
   <g id="line2d_34">
    <path d="M 90 544.972962 
L 648 544.972962 
" clip-path="url(#pe97efdf635)" style="fill: none; stroke: #1f77b4; stroke-width: 1.5; stroke-linecap: square"/>
   </g>
   <g id="line2d_35">
    <path d="M 115.363636 564.86328 
L 120.487603 111.6 
L 125.61157 564.86328 
L 130.735537 564.86328 
L 135.859504 590.507146 
L 140.983471 614.679116 
L 146.107438 560.934314 
L 151.231405 558.408105 
L 156.355372 593.961707 
L 161.479339 615.219202 
L 166.603306 598.710483 
L 171.727273 583.16496 
L 176.85124 600.178921 
L 181.975207 558.119395 
L 187.099174 614.997692 
L 192.22314 606.878976 
L 197.347107 610.706869 
L 202.471074 538.514514 
L 207.595041 540.664903 
L 212.719008 594.743214 
L 217.842975 580.999638 
L 222.966942 594.825347 
L 228.090909 600.960428 
L 233.214876 589.616128 
L 238.338843 607.55844 
L 243.46281 596.204185 
L 248.586777 597.662666 
L 253.710744 591.502697 
L 258.834711 610.000028 
L 263.958678 610.65958 
L 269.082645 599.034037 
L 274.206612 606.757021 
L 279.330579 574.429003 
L 284.454545 609.853184 
L 289.578512 610.455492 
L 294.702479 606.510623 
L 299.826446 603.30495 
L 304.950413 615.6 
L 310.07438 595.303211 
L 315.198347 596.072274 
L 320.322314 610.48287 
L 325.446281 605.062096 
L 330.570248 613.551655 
L 335.694215 589.645995 
L 340.818182 596.716893 
L 345.942149 606.545467 
L 351.066116 607.692839 
L 356.190083 611.510776 
L 361.31405 606.597733 
L 366.438017 584.653308 
L 371.561983 588.789821 
L 376.68595 592.941267 
L 381.809917 600.987805 
L 386.933884 610.301182 
L 392.057851 602.0854 
L 397.181818 615.37849 
L 402.305785 610.74918 
L 407.429752 611.406243 
L 412.553719 594.84028 
L 417.677686 601.33127 
L 422.801653 606.219424 
L 427.92562 615.33369 
L 433.049587 601.341226 
L 438.173554 595.405255 
L 443.297521 590.972566 
L 448.421488 604.462277 
L 453.545455 592.791935 
L 458.669421 594.932369 
L 463.793388 605.457828 
L 468.917355 599.18337 
L 474.041322 254.790048 
L 479.165289 419.755278 
L 484.289256 442.961564 
L 489.413223 569.135163 
L 494.53719 450.721881 
L 499.661157 601.430826 
L 504.785124 460.122368 
L 509.909091 608.59879 
L 515.033058 486.696103 
L 520.157025 601.839001 
L 525.280992 482.059326 
L 530.404959 602.637931 
L 535.528926 465.538163 
L 540.652893 602.160066 
L 545.77686 365.281236 
L 550.900826 605.614627 
L 556.024793 438.934561 
L 561.14876 590.741101 
L 566.272727 398.990581 
L 571.396694 581.716434 
L 576.520661 471.623467 
L 581.644628 548.58202 
L 586.768595 603.098373 
L 591.892562 507.542934 
L 597.016529 559.729698 
L 602.140496 447.541097 
L 607.264463 595.828364 
L 612.38843 406.297922 
L 617.512397 603.665837 
L 622.636364 461.434006 
" clip-path="url(#pe97efdf635)" style="fill: none; stroke: #2ca02c; stroke-width: 1.5; stroke-linecap: square"/>
   </g>
   <g id="line2d_36">
    <path d="M 90 564.86328 
L 648 564.86328 
" clip-path="url(#pe97efdf635)" style="fill: none; stroke: #1f77b4; stroke-width: 1.5; stroke-linecap: square"/>
   </g>
   <g id="patch_3">
    <path d="M 90 640.8 
L 90 86.4 
" style="fill: none; stroke: #000000; stroke-width: 0.8; stroke-linejoin: miter; stroke-linecap: square"/>
   </g>
   <g id="patch_4">
    <path d="M 648 640.8 
L 648 86.4 
" style="fill: none; stroke: #000000; stroke-width: 0.8; stroke-linejoin: miter; stroke-linecap: square"/>
   </g>
   <g id="patch_5">
    <path d="M 90 640.8 
L 648 640.8 
" style="fill: none; stroke: #000000; stroke-width: 0.8; stroke-linejoin: miter; stroke-linecap: square"/>
   </g>
   <g id="patch_6">
    <path d="M 90 86.4 
L 648 86.4 
" style="fill: none; stroke: #000000; stroke-width: 0.8; stroke-linejoin: miter; stroke-linecap: square"/>
   </g>
   <g id="text_19">
    <!-- Compiler flags optmization -->
    <g transform="translate(288.126562 80.4) scale(0.12 -0.12)">
     <defs>
      <path id="DejaVuSans-70" d="M 1159 525 
L 1159 -1331 
L 581 -1331 
L 581 3500 
L 1159 3500 
L 1159 2969 
Q 1341 3281 1617 3432 
Q 1894 3584 2278 3584 
Q 2916 3584 3314 3078 
Q 3713 2572 3713 1747 
Q 3713 922 3314 415 
Q 2916 -91 2278 -91 
Q 1894 -91 1617 61 
Q 1341 213 1159 525 
z
M 3116 1747 
Q 3116 2381 2855 2742 
Q 2594 3103 2138 3103 
Q 1681 3103 1420 2742 
Q 1159 2381 1159 1747 
Q 1159 1113 1420 752 
Q 1681 391 2138 391 
Q 2594 391 2855 752 
Q 3116 1113 3116 1747 
z
" transform="scale(0.015625)"/>
      <path id="DejaVuSans-66" d="M 2375 4863 
L 2375 4384 
L 1825 4384 
Q 1516 4384 1395 4259 
Q 1275 4134 1275 3809 
L 1275 3500 
L 2222 3500 
L 2222 3053 
L 1275 3053 
L 1275 0 
L 697 0 
L 697 3053 
L 147 3053 
L 147 3500 
L 697 3500 
L 697 3744 
Q 697 4328 969 4595 
Q 1241 4863 1831 4863 
L 2375 4863 
z
" transform="scale(0.015625)"/>
      <path id="DejaVuSans-67" d="M 2906 1791 
Q 2906 2416 2648 2759 
Q 2391 3103 1925 3103 
Q 1463 3103 1205 2759 
Q 947 2416 947 1791 
Q 947 1169 1205 825 
Q 1463 481 1925 481 
Q 2391 481 2648 825 
Q 2906 1169 2906 1791 
z
M 3481 434 
Q 3481 -459 3084 -895 
Q 2688 -1331 1869 -1331 
Q 1566 -1331 1297 -1286 
Q 1028 -1241 775 -1147 
L 775 -588 
Q 1028 -725 1275 -790 
Q 1522 -856 1778 -856 
Q 2344 -856 2625 -561 
Q 2906 -266 2906 331 
L 2906 616 
Q 2728 306 2450 153 
Q 2172 0 1784 0 
Q 1141 0 747 490 
Q 353 981 353 1791 
Q 353 2603 747 3093 
Q 1141 3584 1784 3584 
Q 2172 3584 2450 3431 
Q 2728 3278 2906 2969 
L 2906 3500 
L 3481 3500 
L 3481 434 
z
" transform="scale(0.015625)"/>
      <path id="DejaVuSans-7a" d="M 353 3500 
L 3084 3500 
L 3084 2975 
L 922 459 
L 3084 459 
L 3084 0 
L 275 0 
L 275 525 
L 2438 3041 
L 353 3041 
L 353 3500 
z
" transform="scale(0.015625)"/>
     </defs>
     <use xlink:href="#DejaVuSans-43"/>
     <use xlink:href="#DejaVuSans-6f" transform="translate(69.824219 0)"/>
     <use xlink:href="#DejaVuSans-6d" transform="translate(131.005859 0)"/>
     <use xlink:href="#DejaVuSans-70" transform="translate(228.417969 0)"/>
     <use xlink:href="#DejaVuSans-69" transform="translate(291.894531 0)"/>
     <use xlink:href="#DejaVuSans-6c" transform="translate(319.677734 0)"/>
     <use xlink:href="#DejaVuSans-65" transform="translate(347.460938 0)"/>
     <use xlink:href="#DejaVuSans-72" transform="translate(408.984375 0)"/>
     <use xlink:href="#DejaVuSans-20" transform="translate(450.097656 0)"/>
     <use xlink:href="#DejaVuSans-66" transform="translate(481.884766 0)"/>
     <use xlink:href="#DejaVuSans-6c" transform="translate(517.089844 0)"/>
     <use xlink:href="#DejaVuSans-61" transform="translate(544.873047 0)"/>
     <use xlink:href="#DejaVuSans-67" transform="translate(606.152344 0)"/>
     <use xlink:href="#DejaVuSans-73" transform="translate(669.628906 0)"/>
     <use xlink:href="#DejaVuSans-20" transform="translate(721.728516 0)"/>
     <use xlink:href="#DejaVuSans-6f" transform="translate(753.515625 0)"/>
     <use xlink:href="#DejaVuSans-70" transform="translate(814.697266 0)"/>
     <use xlink:href="#DejaVuSans-74" transform="translate(878.173828 0)"/>
     <use xlink:href="#DejaVuSans-6d" transform="translate(917.382812 0)"/>
     <use xlink:href="#DejaVuSans-69" transform="translate(1014.794922 0)"/>
     <use xlink:href="#DejaVuSans-7a" transform="translate(1042.578125 0)"/>
     <use xlink:href="#DejaVuSans-61" transform="translate(1095.068359 0)"/>
     <use xlink:href="#DejaVuSans-74" transform="translate(1156.347656 0)"/>
     <use xlink:href="#DejaVuSans-69" transform="translate(1195.556641 0)"/>
     <use xlink:href="#DejaVuSans-6f" transform="translate(1223.339844 0)"/>
     <use xlink:href="#DejaVuSans-6e" transform="translate(1284.521484 0)"/>
    </g>
   </g>
   <g id="legend_1">
    <g id="patch_7">
     <path d="M 511.320312 138.434375 
L 641 138.434375 
Q 643 138.434375 643 136.434375 
L 643 93.4 
Q 643 91.4 641 91.4 
L 511.320312 91.4 
Q 509.320312 91.4 509.320312 93.4 
L 509.320312 136.434375 
Q 509.320312 138.434375 511.320312 138.434375 
z
" style="fill: #ffffff; opacity: 0.8; stroke: #cccccc; stroke-linejoin: miter"/>
    </g>
    <g id="line2d_37">
     <path d="M 513.320312 99.498437 
L 523.320312 99.498437 
L 533.320312 99.498437 
" style="fill: none; stroke: #1f77b4; stroke-width: 1.5; stroke-linecap: square"/>
    </g>
    <g id="text_20">
     <!-- -O2 Optimization -->
     <g transform="translate(541.320312 102.998437) scale(0.1 -0.1)">
      <defs>
       <path id="DejaVuSans-2d" d="M 313 2009 
L 1997 2009 
L 1997 1497 
L 313 1497 
L 313 2009 
z
" transform="scale(0.015625)"/>
       <path id="DejaVuSans-4f" d="M 2522 4238 
Q 1834 4238 1429 3725 
Q 1025 3213 1025 2328 
Q 1025 1447 1429 934 
Q 1834 422 2522 422 
Q 3209 422 3611 934 
Q 4013 1447 4013 2328 
Q 4013 3213 3611 3725 
Q 3209 4238 2522 4238 
z
M 2522 4750 
Q 3503 4750 4090 4092 
Q 4678 3434 4678 2328 
Q 4678 1225 4090 567 
Q 3503 -91 2522 -91 
Q 1538 -91 948 565 
Q 359 1222 359 2328 
Q 359 3434 948 4092 
Q 1538 4750 2522 4750 
z
" transform="scale(0.015625)"/>
      </defs>
      <use xlink:href="#DejaVuSans-2d"/>
      <use xlink:href="#DejaVuSans-4f" transform="translate(38.833984 0)"/>
      <use xlink:href="#DejaVuSans-32" transform="translate(117.544922 0)"/>
      <use xlink:href="#DejaVuSans-20" transform="translate(181.167969 0)"/>
      <use xlink:href="#DejaVuSans-4f" transform="translate(212.955078 0)"/>
      <use xlink:href="#DejaVuSans-70" transform="translate(291.666016 0)"/>
      <use xlink:href="#DejaVuSans-74" transform="translate(355.142578 0)"/>
      <use xlink:href="#DejaVuSans-69" transform="translate(394.351562 0)"/>
      <use xlink:href="#DejaVuSans-6d" transform="translate(422.134766 0)"/>
      <use xlink:href="#DejaVuSans-69" transform="translate(519.546875 0)"/>
      <use xlink:href="#DejaVuSans-7a" transform="translate(547.330078 0)"/>
      <use xlink:href="#DejaVuSans-61" transform="translate(599.820312 0)"/>
      <use xlink:href="#DejaVuSans-74" transform="translate(661.099609 0)"/>
      <use xlink:href="#DejaVuSans-69" transform="translate(700.308594 0)"/>
      <use xlink:href="#DejaVuSans-6f" transform="translate(728.091797 0)"/>
      <use xlink:href="#DejaVuSans-6e" transform="translate(789.273438 0)"/>
     </g>
    </g>
    <g id="line2d_38">
     <path d="M 513.320312 114.176562 
L 523.320312 114.176562 
L 533.320312 114.176562 
" style="fill: none; stroke: #ff7f0e; stroke-width: 1.5; stroke-linecap: square"/>
    </g>
    <g id="text_21">
     <!-- -O3 Optimization -->
     <g transform="translate(541.320312 117.676562) scale(0.1 -0.1)">
      <defs>
       <path id="DejaVuSans-33" d="M 2597 2516 
Q 3050 2419 3304 2112 
Q 3559 1806 3559 1356 
Q 3559 666 3084 287 
Q 2609 -91 1734 -91 
Q 1441 -91 1130 -33 
Q 819 25 488 141 
L 488 750 
Q 750 597 1062 519 
Q 1375 441 1716 441 
Q 2309 441 2620 675 
Q 2931 909 2931 1356 
Q 2931 1769 2642 2001 
Q 2353 2234 1838 2234 
L 1294 2234 
L 1294 2753 
L 1863 2753 
Q 2328 2753 2575 2939 
Q 2822 3125 2822 3475 
Q 2822 3834 2567 4026 
Q 2313 4219 1838 4219 
Q 1578 4219 1281 4162 
Q 984 4106 628 3988 
L 628 4550 
Q 988 4650 1302 4700 
Q 1616 4750 1894 4750 
Q 2613 4750 3031 4423 
Q 3450 4097 3450 3541 
Q 3450 3153 3228 2886 
Q 3006 2619 2597 2516 
z
" transform="scale(0.015625)"/>
      </defs>
      <use xlink:href="#DejaVuSans-2d"/>
      <use xlink:href="#DejaVuSans-4f" transform="translate(38.833984 0)"/>
      <use xlink:href="#DejaVuSans-33" transform="translate(117.544922 0)"/>
      <use xlink:href="#DejaVuSans-20" transform="translate(181.167969 0)"/>
      <use xlink:href="#DejaVuSans-4f" transform="translate(212.955078 0)"/>
      <use xlink:href="#DejaVuSans-70" transform="translate(291.666016 0)"/>
      <use xlink:href="#DejaVuSans-74" transform="translate(355.142578 0)"/>
      <use xlink:href="#DejaVuSans-69" transform="translate(394.351562 0)"/>
      <use xlink:href="#DejaVuSans-6d" transform="translate(422.134766 0)"/>
      <use xlink:href="#DejaVuSans-69" transform="translate(519.546875 0)"/>
      <use xlink:href="#DejaVuSans-7a" transform="translate(547.330078 0)"/>
      <use xlink:href="#DejaVuSans-61" transform="translate(599.820312 0)"/>
      <use xlink:href="#DejaVuSans-74" transform="translate(661.099609 0)"/>
      <use xlink:href="#DejaVuSans-69" transform="translate(700.308594 0)"/>
      <use xlink:href="#DejaVuSans-6f" transform="translate(728.091797 0)"/>
      <use xlink:href="#DejaVuSans-6e" transform="translate(789.273438 0)"/>
     </g>
    </g>
    <g id="line2d_39">
     <path d="M 513.320312 128.854687 
L 523.320312 128.854687 
L 533.320312 128.854687 
" style="fill: none; stroke: #2ca02c; stroke-width: 1.5; stroke-linecap: square"/>
    </g>
    <g id="text_22">
     <!-- -Ofast Optimization -->
     <g transform="translate(541.320312 132.354687) scale(0.1 -0.1)">
      <use xlink:href="#DejaVuSans-2d"/>
      <use xlink:href="#DejaVuSans-4f" transform="translate(38.833984 0)"/>
      <use xlink:href="#DejaVuSans-66" transform="translate(117.544922 0)"/>
      <use xlink:href="#DejaVuSans-61" transform="translate(152.75 0)"/>
      <use xlink:href="#DejaVuSans-73" transform="translate(214.029297 0)"/>
      <use xlink:href="#DejaVuSans-74" transform="translate(266.128906 0)"/>
      <use xlink:href="#DejaVuSans-20" transform="translate(305.337891 0)"/>
      <use xlink:href="#DejaVuSans-4f" transform="translate(337.125 0)"/>
      <use xlink:href="#DejaVuSans-70" transform="translate(415.835938 0)"/>
      <use xlink:href="#DejaVuSans-74" transform="translate(479.3125 0)"/>
      <use xlink:href="#DejaVuSans-69" transform="translate(518.521484 0)"/>
      <use xlink:href="#DejaVuSans-6d" transform="translate(546.304688 0)"/>
      <use xlink:href="#DejaVuSans-69" transform="translate(643.716797 0)"/>
      <use xlink:href="#DejaVuSans-7a" transform="translate(671.5 0)"/>
      <use xlink:href="#DejaVuSans-61" transform="translate(723.990234 0)"/>
      <use xlink:href="#DejaVuSans-74" transform="translate(785.269531 0)"/>
      <use xlink:href="#DejaVuSans-69" transform="translate(824.478516 0)"/>
      <use xlink:href="#DejaVuSans-6f" transform="translate(852.261719 0)"/>
      <use xlink:href="#DejaVuSans-6e" transform="translate(913.443359 0)"/>
     </g>
    </g>
   </g>
  </g>
 </g>
 <defs>
  <clipPath id="pe97efdf635">
   <rect x="90" y="86.4" width="558" height="554.4"/>
  </clipPath>
 </defs>
</svg>
